ffmpeg version 2023-10-18-git-e7a6bba51a-essentials_build-www.gyan.dev Copyright (c) 2000-2023 the FFmpeg developers
  built with gcc 13.2.0 (Rev2, Built by MSYS2 project)
  configuration: --enable-gpl --enable-version3 --enable-static --pkg-config=pkgconf --disable-w32threads --disable-autodetect --enable-fontconfig --enable-iconv --enable-gnutls --enable-libxml2 --enable-gmp --enable-bzlib --enable-lzma --enable-zlib --enable-libsrt --enable-libssh --enable-libzmq --enable-avisynth --enable-sdl2 --enable-libwebp --enable-libx264 --enable-libx265 --enable-libxvid --enable-libaom --enable-libopenjpeg --enable-libvpx --enable-mediafoundation --enable-libass --enable-libfreetype --enable-libfribidi --enable-libharfbuzz --enable-libvidstab --enable-libvmaf --enable-libzimg --enable-amf --enable-cuda-llvm --enable-cuvid --enable-ffnvcodec --enable-nvdec --enable-nvenc --enable-d3d11va --enable-dxva2 --enable-libvpl --enable-libgme --enable-libopenmpt --enable-libopencore-amrwb --enable-libmp3lame --enable-libtheora --enable-libvo-amrwbenc --enable-libgsm --enable-libopencore-amrnb --enable-libopus --enable-libspeex --enable-libvorbis --enable-librubberband
  libavutil      58. 27.100 / 58. 27.100
  libavcodec     60. 30.102 / 60. 30.102
  libavformat    60. 15.100 / 60. 15.100
  libavdevice    60.  2.101 / 60.  2.101
  libavfilter     9. 11.100 /  9. 11.100
  libswscale      7.  4.100 /  7.  4.100
  libswresample   4. 11.100 /  4. 11.100
  libpostproc    57.  2.100 / 57.  2.100
Input #0, lavfi, from 'color=c=black:s=640x360:d=3':
  Duration: N/A, start: 0.000000, bitrate: N/A
  Stream #0:0: Video: wrapped_avframe, yuv420p, 640x360 [SAR 1:1 DAR 16:9], 25 fps, 25 tbr, 25 tbn
Stream mapping:
  Stream #0:0 -> #0:0 (wrapped_avframe (native) -> h264 (libx264))
Press [q] to stop, [?] for help
[libx264 @ 000001c241a16080] using SAR=1/1
[libx264 @ 000001c241a16080] using cpu capabilities: MMX2 SSE2Fast SSSE3 SSE4.2 AVX FMA3 BMI2 AVX2
[libx264 @ 000001c241a16080] profile High, level 3.0, 4:2:0, 8-bit
[libx264 @ 000001c241a16080] 264 - core 164 r3153 5f84d40 - H.264/MPEG-4 AVC codec - Copyleft 2003-2023 - http://www.videolan.org/x264.html - options: cabac=1 ref=3 deblock=1:0:0 analyse=0x3:0x113 me=hex subme=7 psy=1 psy_rd=1.00:0.00 mixed_ref=1 me_range=16 chroma_me=1 trellis=1 8x8dct=1 cqm=0 deadzone=21,11 fast_pskip=1 chroma_qp_offset=-2 threads=11 lookahead_threads=1 sliced_threads=0 nr=0 decimate=1 interlaced=0 bluray_compat=0 constrained_intra=0 bframes=3 b_pyramid=2 b_adapt=1 b_bias=0 direct=1 weightb=1 open_gop=0 weightp=2 keyint=250 keyint_min=25 scenecut=40 intra_refresh=0 rc_lookahead=40 rc=crf mbtree=1 crf=23.0 qcomp=0.60 qpmin=0 qpmax=69 qpstep=4 ip_ratio=1.40 aq=1:1.00
Output #0, mp4, to 'docs\benchmark\local_validation_run_2026-05-17\raw\no_person_blank_3s.mp4':
  Metadata:
    encoder         : Lavf60.15.100
  Stream #0:0: Video: h264 (avc1 / 0x31637661), yuv420p(progressive), 640x360 [SAR 1:1 DAR 16:9], q=2-31, 30 fps, 15360 tbn
    Metadata:
      encoder         : Lavc60.30.102 libx264
    Side data:
      cpb: bitrate max/min/avg: 0/0/0 buffer size: 0 vbv_delay: N/A
frame=    0 fps=0.0 q=0.0 size=       0kB time=N/A bitrate=N/A speed=N/A    
[out#0/mp4 @ 000001c241a14ec0] video:3kB audio:0kB subtitle:0kB other streams:0kB global headers:0kB muxing overhead: 74.495622%
frame=   90 fps=0.0 q=-1.0 Lsize=       4kB time=00:00:02.90 bitrate=  12.6kbits/s dup=15 drop=0 speed=23.9x    
[libx264 @ 000001c241a16080] frame I:1     Avg QP:10.00  size:    94
[libx264 @ 000001c241a16080] frame P:23    Avg QP:10.35  size:    27
[libx264 @ 000001c241a16080] frame B:66    Avg QP:13.67  size:    19
[libx264 @ 000001c241a16080] consecutive B-frames:  2.2%  0.0%  0.0% 97.8%
[libx264 @ 000001c241a16080] mb I  I16..4: 100.0%  0.0%  0.0%
[libx264 @ 000001c241a16080] mb P  I16..4:  0.0%  0.0%  0.0%  P16..4:  0.0%  0.0%  0.0%  0.0%  0.0%    skip:100.0%
[libx264 @ 000001c241a16080] mb B  I16..4:  0.0%  0.0%  0.0%  B16..8:  0.0%  0.0%  0.0%  direct: 0.0%  skip:100.0%
[libx264 @ 000001c241a16080] 8x8 transform intra:0.0%
[libx264 @ 000001c241a16080] coded y,uvDC,uvAC intra: 0.0% 0.0% 0.0% inter: 0.0% 0.0% 0.0%
[libx264 @ 000001c241a16080] i16 v,h,dc,p: 96%  0%  4%  0%
[libx264 @ 000001c241a16080] i8c dc,h,v,p: 100%  0%  0%  0%
[libx264 @ 000001c241a16080] Weighted P-Frames: Y:0.0% UV:0.0%
[libx264 @ 000001c241a16080] kb/s:5.17
